# xmcd
#
# Track frame offsets: 
#        150
#        19036
#        36103
#        51879
#        71168
#        90813
#        112081
#
# Disc length: 1757 seconds
#
# Revision: 0
# Processed by: cddbd v1.5.2PL0 Copyright (c) Steve Scherf et al.
# Submitted via: ExactAudioCopyFreeDBPlugin 1.0
#
DISCID=5406db07
DTITLE=牧村三枝子 - みちづれ
DYEAR=2003
DGENRE=演歌
TTITLE0=みちづれ 
TTITLE1=夾竹桃
TTITLE2=くちなしの花
TTITLE3=若狭の宿 
TTITLE4=樹氷の宿
TTITLE5=友禅流し 
TTITLE6=北越雪譜(雪のロマンを歌うまえに) 
EXTD=
EXTT0=
EXTT1=
EXTT2=
EXTT3=
EXTT4=
EXTT5=
EXTT6=
PLAYORDER=
